# File created by Blade
# Date/Time:  Tue Jan 27 17:01:45 2015
#---------------------------------------------------------
:version 1.10
:name HOM
:units
  mass 1.0
  length 1.000000
  angle deg
:documentation
     Acclaim Skeleton File
:root
   axis xyz
   order TX TY TZ RX RY RZ
   position 0.000000 0.000000 0.000000
   orientation 0 0 0
:bonedata
   begin
      id 1
      name Spine_dum
      direction 0.000000 1.000000 0.000000
      length 7.539951
      axis 0.0 0.0 0.0 xyz
   end
   begin
      id 2
      name LeftUpLeg_dum
      direction 1.000000 0.000000 0.000000
      length 3.345476
      axis 0.0 0.0 0.0 xyz
   end
   begin
      id 3
      name RightUpLeg_dum
      direction -1.000000 0.000000 0.000000
      length 3.345476
      axis 0.0 0.0 0.0 xyz
   end
   begin
      id 4
      name Spine
      direction 0.000000 1.000000 0.000000
      length 0.000000
      axis 0.0 0.0 0.0 xyz
      dof rx ry rz
   end
   begin
      id 5
      name Spine_dum1
      direction 0.000000 1.000000 0.000000
      length 15.093809
      axis 0.0 0.0 0.0 xyz
   end
   begin
      id 6
      name Spine_dum2
      direction 0.000000 1.000000 0.000000
      length 9.738928
      axis 0.0 0.0 0.0 xyz
   end
   begin
      id 7
      name Spine_dum3
      direction 0.000000 1.000000 0.000000
      length 9.738928
      axis 0.0 0.0 0.0 xyz
   end
   begin
      id 8
      name Head
      direction 0.000000 1.000000 0.000000
      length 4.527550
      axis 0.0 0.0 0.0 xyz
      dof rx ry rz
   end
   begin
      id 9
      name LeftShoulder
      direction 1.000000 0.000000 0.000000
      length 7.084015
      axis 0.0 0.0 -90.0 xyz
      dof rx ry rz
   end
   begin
      id 10
      name LeftArm
      direction 1.000000 0.000000 0.000000
      length 10.259319
      axis 0.0 0.0 -90.0 xyz
      dof rx ry rz
   end
   begin
      id 11
      name LeftForeArm
      direction 1.000000 0.000000 0.000000
      length 9.896984
      axis 0.0 0.0 -90.0 xyz
      dof ry rz rx
   end
   begin
      id 12
      name LeftHand
      direction 0.000000 0.000000 0.000000
      length 0.000000
      axis 0.0 0.0 -90.0 xyz
      dof rx ry rz
   end
   begin
      id 13
      name LeftHand_dum1
      direction 0.000000 0.000000 0.000000
      length 0.000000
      axis 0.0 0.0 -90.0 xyz
   end
   begin
      id 14
      name LeftHand_dum2
      direction 1.000000 0.000000 0.000000
      length 3.937000
      axis 0.0 0.0 -90.0 xyz
   end
   begin
      id 15
      name LeftHandThumb1
      direction 0.000000 0.000000 1.000000
      length 3.937000
      axis 0.0 0.0 -90.0 xyz
      dof rx rz ry
   end
   begin
      id 16
      name RightShoulder
      direction -1.000000 0.000000 0.000000
      length 7.084015
      axis 0.0 0.0 90.0 xyz
      dof rx ry rz
   end
   begin
      id 17
      name RightArm
      direction -1.000000 0.000000 0.000000
      length 10.259319
      axis 0.0 0.0 90.0 xyz
      dof rx ry rz
   end
   begin
      id 18
      name RightForeArm
      direction -1.000000 0.000000 0.000000
      length 9.896984
      axis 0.0 0.0 90.0 xyz
      dof ry rz rx
   end
   begin
      id 19
      name RightHand
      direction 0.000000 0.000000 0.000000
      length 0.000000
      axis 0.0 0.0 90.0 xyz
      dof rx ry rz
   end
   begin
      id 20
      name RightHand_dum1
      direction 0.000000 0.000000 0.000000
      length 0.000000
      axis 0.0 0.0 90.0 xyz
   end
   begin
      id 21
      name RightHand_dum2
      direction -1.000000 0.000000 0.000000
      length 3.937000
      axis 0.0 0.0 90.0 xyz
   end
   begin
      id 22
      name RightHandThumb1
      direction 0.000000 0.000000 1.000000
      length 3.937000
      axis 0.0 0.0 90.0 xyz
      dof rx rz ry
   end
   begin
      id 23
      name LeftUpLeg
      direction 0.000000 -1.000000 0.000000
      length 19.114733
      axis 0.0 0.0 0.0 xyz
      dof rx ry rz
   end
   begin
      id 24
      name LeftLeg
      direction 0.000000 -1.000000 0.000000
      length 16.045604
      axis 0.0 0.0 0.0 xyz
      dof rx ry rz
   end
   begin
      id 25
      name LeftFoot
      direction 0.000000 -0.258819 0.965926
      length 5.543155
      axis 15.0 0.0 0.0 xyz
      dof rx ry rz
   end
   begin
      id 26
      name LeftToeBase
      direction 0.000000 0.000000 1.000000
      length 2.952750
      axis 0.0 0.0 0.0 xyz
      dof rx ry rz
   end
   begin
      id 27
      name RightUpLeg
      direction 0.000000 -1.000000 0.000000
      length 19.114733
      axis 0.0 0.0 0.0 xyz
      dof rx ry rz
   end
   begin
      id 28
      name RightLeg
      direction 0.000000 -1.000000 0.000000
      length 16.045604
      axis 0.0 0.0 0.0 xyz
      dof rx ry rz
   end
   begin
      id 29
      name RightFoot
      direction 0.000000 -0.258819 0.965926
      length 5.543155
      axis 15.0 0.0 0.0 xyz
      dof rx ry rz
   end
   begin
      id 30
      name RightToeBase
      direction 0.000000 0.000000 1.000000
      length 2.952750
      axis 0.0 0.0 0.0 xyz
      dof rx ry rz
   end
:hierarchy
   begin
      root Spine_dum LeftUpLeg_dum RightUpLeg_dum
      Spine_dum Spine
      LeftUpLeg_dum LeftUpLeg
      RightUpLeg_dum RightUpLeg
      Spine Spine_dum1 Spine_dum2 Spine_dum3
      Spine_dum1 Head
      Spine_dum2 LeftShoulder
      Spine_dum3 RightShoulder
      LeftShoulder LeftArm
      LeftArm LeftForeArm
      LeftForeArm LeftHand
      LeftHand LeftHand_dum1 LeftHand_dum2
      LeftHand_dum1 LeftHandThumb1
      RightShoulder RightArm
      RightArm RightForeArm
      RightForeArm RightHand
      RightHand RightHand_dum1 RightHand_dum2
      RightHand_dum1 RightHandThumb1
      LeftUpLeg LeftLeg
      LeftLeg LeftFoot
      LeftFoot LeftToeBase
      RightUpLeg RightLeg
      RightLeg RightFoot
      RightFoot RightToeBase
   end

# File created by Blade
# Date/Time:  Tue Jan 27 17:01:38 2015
# Frame Rate: 120.000 fps
#------------------------------------------------------
:FULLY-SPECIFIED
:DEGREES
1087
root -0.689947 36.887264 4.517103 5.637716 -3.043362 -0.571538
Spine -2.012720 3.880617 -2.601639
Head -2.673232 3.131416 2.313759
LeftShoulder -0.602983 -2.097984 -0.835447
LeftArm -2.285402 -6.453574 -70.779792
LeftForeArm -68.504929 0.000000 100.897297
LeftHand -5.288134 -0.000000 -14.934760
LeftHandThumb1 -26.253704 0.000000 33.147579
RightShoulder -1.418550 -22.005144 0.451897
RightArm 26.515155 -34.116442 50.828504
RightForeArm -147.667833 -0.000000 34.487073
RightHand -0.879318 -0.000000 -2.594892
RightHandThumb1 -24.326973 -0.000000 -32.862282
LeftUpLeg -3.641250 15.344485 3.922691
LeftLeg 7.465689 -0.000000 -0.000000
LeftFoot -16.696761 4.216743 -20.757689
LeftToeBase 15.002687 -0.000000 -0.000000
RightUpLeg -6.678083 -8.242053 -1.691242
RightLeg 10.270202 -0.000000 -0.000000
RightFoot -14.742992 -2.776909 13.344221
RightToeBase 11.304856 -0.000000 -0.000000
1088
root -0.687984 36.887639 4.512759 5.668187 -3.050216 -0.567280
Spine -2.034499 3.852763 -2.605001
Head -2.639040 3.171119 2.352574
LeftShoulder -0.550738 -2.102153 -0.920357
LeftArm -2.368527 -6.571972 -70.648941
LeftForeArm -69.011825 0.000000 101.589825
LeftHand -5.382723 -0.000000 -14.408815
LeftHandThumb1 -26.253704 0.000000 33.147579
RightShoulder -1.411585 -22.015035 0.431383
RightArm 26.594579 -34.155244 50.781087
RightForeArm -147.679060 -0.000000 34.535471
RightHand -0.905402 -0.000000 -2.628070
RightHandThumb1 -24.326973 -0.000000 -32.862282
LeftUpLeg -3.684030 15.351522 3.905732
LeftLeg 7.477945 -0.000000 -0.000000
LeftFoot -16.698851 4.218158 -20.765978
LeftToeBase 15.040423 -0.000000 -0.000000
RightUpLeg -6.721127 -8.244039 -1.691917
RightLeg 10.274942 -0.000000 -0.000000
RightFoot -14.746597 -2.779192 13.322096
RightToeBase 11.262985 -0.000000 -0.000000
1089
root -0.685759 36.887696 4.507570 5.710341 -3.063199 -0.562269
Spine -2.064508 3.812868 -2.617686
Head -2.612493 3.225560 2.408941
LeftShoulder -0.511423 -2.103875 -1.001806
LeftArm -2.464614 -6.738111 -70.509152
LeftForeArm -69.286863 -0.000000 102.436466
LeftHand -5.311083 -0.000000 -14.449859
LeftHandThumb1 -26.253704 0.000000 33.147579
RightShoulder -1.395533 -21.999110 0.410879
RightArm 26.660889 -34.220679 50.731348
RightForeArm -147.696181 -0.000000 34.591225
RightHand -0.965203 -0.000000 -2.616028
RightHandThumb1 -24.326973 -0.000000 -32.862282
LeftUpLeg -3.735169 15.367518 3.881818
LeftLeg 7.477893 -0.000000 -0.000000
LeftFoot -16.693162 4.225015 -20.746283
LeftToeBase 15.015778 -0.000000 -0.000000
RightUpLeg -6.773960 -8.227351 -1.694520
RightLeg 10.277237 -0.000000 -0.000000
RightFoot -14.738929 -2.762147 13.370060
RightToeBase 11.250345 -0.000000 -0.000000
1090
root -0.684746 36.887450 4.504288 5.730264 -3.066942 -0.560257
Spine -2.064405 3.761671 -2.635994
Head -2.608577 3.275078 2.489861
LeftShoulder -0.493290 -2.048692 -1.074802
LeftArm -2.506234 -6.948342 -70.367121
LeftForeArm -69.146466 -0.000000 103.439989
LeftHand -4.749721 -0.000000 -14.838704
LeftHandThumb1 -26.253704 0.000000 33.147579
RightShoulder -1.376201 -21.985584 0.386899
RightArm 26.736269 -34.282420 50.684837
RightForeArm -147.751328 0.000000 34.647759
RightHand -0.993346 -0.000000 -2.618828
RightHandThumb1 -24.326973 -0.000000 -32.862282
LeftUpLeg -3.767029 15.387853 3.871389
LeftLeg 7.492586 -0.000000 -0.000000
LeftFoot -16.688367 4.208388 -20.744266
LeftToeBase 15.011103 -0.000000 -0.000000
RightUpLeg -6.805234 -8.228965 -1.692964
RightLeg 10.289447 -0.000000 -0.000000
RightFoot -14.736615 -2.774208 13.360095
RightToeBase 11.231690 -0.000000 -0.000000
1091
root -0.683177 36.887444 4.499814 5.781166 -3.071699 -0.549518
Spine -2.097073 3.698600 -2.673801
Head -2.617057 3.324399 2.581731
LeftShoulder -0.490458 -2.008739 -1.142350
LeftArm -2.568829 -7.188817 -70.201047
LeftForeArm -68.664361 -0.000000 104.603480
LeftHand -3.973745 -0.000000 -15.693591
LeftHandThumb1 -26.253704 0.000000 33.147579
RightShoulder -1.375061 -21.984786 0.365640
RightArm 26.841758 -34.349748 50.620914
RightForeArm -147.807027 -0.000000 34.697241
RightHand -0.978338 -0.000000 -2.581411
RightHandThumb1 -24.326973 -0.000000 -32.862282
LeftUpLeg -3.829132 15.379843 3.845339
LeftLeg 7.498279 -0.000000 -0.000000
LeftFoot -16.694898 4.204869 -20.774629
LeftToeBase 15.047602 -0.000000 -0.000000
RightUpLeg -6.866192 -8.223491 -1.698295
RightLeg 10.292970 -0.000000 -0.000000
RightFoot -14.738941 -2.785707 13.354734
RightToeBase 11.279960 -0.000000 -0.000000
1092
root -0.682252 36.886998 4.497482 5.797526 -3.088488 -0.546203
Spine -2.079815 3.629739 -2.702944
Head -2.667975 3.355640 2.687218
LeftShoulder -0.537600 -1.913140 -1.186606
LeftArm -2.528163 -7.500180 -70.065837
LeftForeArm -67.968978 0.000000 105.909786
LeftHand -3.206856 -0.000000 -16.714800
LeftHandThumb1 -26.253704 0.000000 33.147579
RightShoulder -1.344545 -21.971762 0.313225
RightArm 26.944912 -34.412447 50.584166
RightForeArm -147.901484 -0.000000 34.736102
RightHand -0.984059 -0.000000 -2.588972
RightHandThumb1 -24.326973 -0.000000 -32.862282
LeftUpLeg -3.845205 15.395498 3.835593
LeftLeg 7.493203 -0.000000 -0.000000
LeftFoot -16.680644 4.211319 -20.752510
LeftToeBase 14.997109 -0.000000 -0.000000
RightUpLeg -6.888922 -8.209711 -1.699343
RightLeg 10.288319 -0.000000 -0.000000
RightFoot -14.743883 -2.758245 13.353006
RightToeBase 11.271379 -0.000000 -0.000000
